<?xml version="1.0" encoding="UTF-8"?>
<svg version="1.1" xmlns="http://www.w3.org/2000/svg" width="512" height="512">
<path d="M0 0 C3.29046237 0.02148076 6.57874258 0.0000254 9.86914062 -0.02539062 C28.98425696 -0.05134824 47.6707768 2.35035964 66.04101562 7.77148438 C67.06702881 8.06740479 68.09304199 8.3633252 69.15014648 8.66821289 C84.89875187 13.34047396 99.82226413 19.78003465 114.29101562 27.52148438 C114.97180176 27.88387207 115.65258789 28.24625977 116.35400391 28.61962891 C128.55351524 35.16106653 139.33622068 42.75978045 149.97851562 51.63867188 C152.34348028 53.62520645 152.34348028 53.62520645 155.29101562 55.52148438 C155.29101562 56.18148437 155.29101562 56.84148437 155.29101562 57.52148438 C155.84789062 57.76898438 156.40476562 58.01648438 156.97851562 58.27148438 C162.19693423 61.09225119 165.57608847 64.97069861 169.29101562 69.52148438 C171.51938127 71.80290634 173.76966663 74.03609049 176.10351562 76.20898438 C177.29101562 77.52148438 177.29101562 77.52148438 177.29101562 79.52148438 C178.28101563 79.85148437 179.27101563 80.18148437 180.29101562 80.52148438 C182.11523438 82.51757813 182.11523438 82.51757813 183.97851562 84.95898438 C184.91244141 86.16361328 184.91244141 86.16361328 185.86523438 87.39257812 C187.29101562 89.52148437 187.29101562 89.52148437 187.29101562 91.52148438 C187.95101563 91.52148438 188.61101562 91.52148438 189.29101562 91.52148438 C202.28740283 108.25783912 213.11020329 128.66034164 220.29101562 148.52148438 C220.57332031 149.29733887 220.855625 150.07319336 221.14648438 150.87255859 C224.70360431 160.76919633 227.75664256 170.70422761 230.10351562 180.95898438 C230.29824463 181.80920166 230.49297363 182.65941895 230.69360352 183.53540039 C231.27208883 186.19042127 231.7918927 188.85042616 232.29101562 191.52148438 C232.47792969 192.47249023 232.66484375 193.42349609 232.85742188 194.40332031 C234.73620445 205.37071358 234.66320957 216.37739838 234.66162109 227.47607422 C234.66596235 230.85501769 234.70229348 234.2326172 234.74023438 237.61132812 C234.84104912 256.9360352 232.52298402 275.69506829 227.04101562 294.27148438 C226.74509521 295.29749756 226.4491748 296.32351074 226.14428711 297.38061523 C221.47202604 313.12922062 215.03246535 328.05273288 207.29101562 342.52148438 C206.92862793 343.20227051 206.56624023 343.88305664 206.19287109 344.58447266 C201.88253547 352.62307078 197.35500755 360.21520927 191.82226562 367.48242188 C190.257292 369.43935807 190.257292 369.43935807 189.29101562 371.52148438 C188.63101562 371.52148438 187.97101563 371.52148438 187.29101562 371.52148438 C187.02289063 372.09382813 186.75476563 372.66617187 186.47851562 373.25585938 C185.24968927 375.60033072 183.86579386 377.64553375 182.29101562 379.77148438 C181.51757812 380.83109375 181.51757812 380.83109375 180.72851562 381.91210938 C180.25414062 382.44320313 179.77976562 382.97429687 179.29101562 383.52148438 C178.63101562 383.52148438 177.97101563 383.52148438 177.29101562 383.52148438 C176.91976562 384.35679687 176.91976562 384.35679687 176.54101562 385.20898438 C173.72024881 390.42740298 169.84180139 393.80655722 165.29101562 397.52148438 C163.00959366 399.74985002 160.77640951 402.00013538 158.60351562 404.33398438 C157.29101562 405.52148438 157.29101562 405.52148438 155.29101562 405.52148438 C154.96101563 406.51148438 154.63101562 407.50148438 154.29101562 408.52148438 C152.29492187 410.34570313 152.29492187 410.34570313 149.85351562 412.20898438 C149.05042969 412.83160156 148.24734375 413.45421875 147.41992188 414.09570312 C145.29101563 415.52148438 145.29101563 415.52148438 143.29101562 415.52148438 C143.29101562 416.18148438 143.29101562 416.84148437 143.29101562 417.52148438 C126.55466088 430.51787158 106.15215836 441.34067204 86.29101562 448.52148438 C85.51516113 448.80378906 84.73930664 449.08609375 83.93994141 449.37695312 C74.04330367 452.93407306 64.10827239 455.98711131 53.85351562 458.33398438 C53.00329834 458.52871338 52.15308105 458.72344238 51.27709961 458.92407227 C48.62207873 459.50255758 45.96207384 460.02236145 43.29101562 460.52148438 C42.34000977 460.70839844 41.38900391 460.8953125 40.40917969 461.08789062 C29.44178642 462.9666732 18.43510162 462.89367832 7.33642578 462.89208984 C3.95748231 462.8964311 0.5798828 462.93276223 -2.79882812 462.97070312 C-22.1235352 463.07151787 -40.88256829 460.75345277 -59.45898438 455.27148438 C-60.48499756 454.97556396 -61.51101074 454.67964355 -62.56811523 454.37475586 C-78.31672062 449.70249479 -93.24023288 443.2629341 -107.70898438 435.52148438 C-108.38977051 435.15909668 -109.07055664 434.79670898 -109.77197266 434.42333984 C-117.81057078 430.11300422 -125.40270927 425.5854763 -132.66992188 420.05273438 C-134.62685807 418.48776075 -134.62685807 418.48776075 -136.70898438 417.52148438 C-136.70898438 416.86148437 -136.70898438 416.20148438 -136.70898438 415.52148438 C-137.28132813 415.25335938 -137.85367188 414.98523438 -138.44335938 414.70898438 C-140.78783072 413.48015802 -142.83303375 412.09626261 -144.95898438 410.52148438 C-145.66539062 410.00585938 -146.37179688 409.49023438 -147.09960938 408.95898438 C-147.89625 408.24742187 -147.89625 408.24742187 -148.70898438 407.52148438 C-148.70898438 406.86148437 -148.70898438 406.20148438 -148.70898438 405.52148438 C-149.26585937 405.27398437 -149.82273437 405.02648437 -150.39648438 404.77148438 C-155.61490298 401.95071756 -158.99405722 398.07227014 -162.70898438 393.52148438 C-164.93735002 391.24006241 -167.18763538 389.00687826 -169.52148438 386.83398438 C-170.70898438 385.52148438 -170.70898438 385.52148438 -170.70898438 383.52148438 C-171.69898438 383.19148438 -172.68898437 382.86148437 -173.70898438 382.52148438 C-175.39257812 380.37695313 -175.39257812 380.37695313 -177.14648438 377.70898438 C-178.86391194 375.10786924 -180.44589235 372.7803837 -182.66992188 370.59179688 C-185.17500238 368.04832433 -187.01252848 365.21834938 -188.89648438 362.20898438 C-189.28304199 361.59724365 -189.66959961 360.98550293 -190.06787109 360.35522461 C-191.28841748 358.41483717 -192.49903614 356.46849396 -193.70898438 354.52148438 C-194.09812012 353.90241211 -194.48725586 353.28333984 -194.88818359 352.64550781 C-217.0096026 317.37408247 -228.55150771 276.37469773 -228.23046875 234.8125 C-228.20898799 231.52203763 -228.23044335 228.23375742 -228.25585938 224.94335938 C-228.28181699 205.82824304 -225.88010911 187.1417232 -220.45898438 168.77148438 C-220.16306396 167.74547119 -219.86714355 166.71945801 -219.56225586 165.66235352 C-214.88999479 149.91374813 -208.4504341 134.99023587 -200.70898438 120.52148438 C-200.34659668 119.84069824 -199.98420898 119.15991211 -199.61083984 118.45849609 C-193.06940222 106.25898476 -185.4706883 95.47627932 -176.59179688 84.83398438 C-174.6052623 82.46901972 -174.6052623 82.46901972 -172.70898438 79.52148438 C-172.04898438 79.52148438 -171.38898438 79.52148438 -170.70898438 79.52148438 C-170.33773437 78.68617187 -170.33773437 78.68617187 -169.95898438 77.83398438 C-167.13821756 72.61556577 -163.25977014 69.23641153 -158.70898438 65.52148438 C-156.42756241 63.29311873 -154.19437826 61.04283337 -152.02148438 58.70898438 C-150.70898438 57.52148438 -150.70898438 57.52148438 -148.70898438 57.52148438 C-148.37898438 56.53148437 -148.04898438 55.54148438 -147.70898438 54.52148438 C-145.56445313 52.83789063 -145.56445313 52.83789063 -142.89648438 51.08398438 C-140.29536924 49.36655681 -137.9678837 47.7845764 -135.77929688 45.56054688 C-133.23582433 43.05546637 -130.40584938 41.21794027 -127.39648438 39.33398438 C-126.47887329 38.75414795 -126.47887329 38.75414795 -125.54272461 38.16259766 C-123.60233717 36.94205127 -121.65599396 35.73143261 -119.70898438 34.52148438 C-119.08991211 34.13234863 -118.47083984 33.74321289 -117.83300781 33.34228516 C-82.56158247 11.22086615 -41.56219773 -0.32103896 0 0 Z " fill="#012E5D" transform="translate(252.708984375,24.478515625)"/>
<path d="M0 0 C3.29046237 0.02148076 6.57874258 0.0000254 9.86914062 -0.02539062 C28.98425696 -0.05134824 47.6707768 2.35035964 66.04101562 7.77148438 C67.06702881 8.06740479 68.09304199 8.3633252 69.15014648 8.66821289 C84.89875187 13.34047396 99.82226413 19.78003465 114.29101562 27.52148438 C114.97180176 27.88387207 115.65258789 28.24625977 116.35400391 28.61962891 C128.55351524 35.16106653 139.33622068 42.75978045 149.97851562 51.63867188 C152.34348028 53.62520645 152.34348028 53.62520645 155.29101562 55.52148438 C155.29101562 56.18148437 155.29101562 56.84148437 155.29101562 57.52148438 C155.84789062 57.76898438 156.40476562 58.01648438 156.97851562 58.27148438 C162.19693423 61.09225119 165.57608847 64.97069861 169.29101562 69.52148438 C171.51938127 71.80290634 173.76966663 74.03609049 176.10351562 76.20898438 C177.29101562 77.52148438 177.29101562 77.52148438 177.29101562 79.52148438 C178.28101563 79.85148437 179.27101563 80.18148437 180.29101562 80.52148438 C182.11523438 82.51757813 182.11523438 82.51757813 183.97851562 84.95898438 C184.91244141 86.16361328 184.91244141 86.16361328 185.86523438 87.39257812 C187.29101562 89.52148437 187.29101562 89.52148437 187.29101562 91.52148438 C187.95101563 91.52148438 188.61101562 91.52148438 189.29101562 91.52148438 C202.28740283 108.25783912 213.11020329 128.66034164 220.29101562 148.52148438 C220.57332031 149.29733887 220.855625 150.07319336 221.14648438 150.87255859 C224.70360431 160.76919633 227.75664256 170.70422761 230.10351562 180.95898438 C230.29824463 181.80920166 230.49297363 182.65941895 230.69360352 183.53540039 C231.27208883 186.19042127 231.7918927 188.85042616 232.29101562 191.52148438 C232.47792969 192.47249023 232.66484375 193.42349609 232.85742188 194.40332031 C234.73620445 205.37071358 234.66320957 216.37739838 234.66162109 227.47607422 C234.66596235 230.85501769 234.70229348 234.2326172 234.74023438 237.61132812 C234.84104912 256.9360352 232.52298402 275.69506829 227.04101562 294.27148438 C226.74509521 295.29749756 226.4491748 296.32351074 226.14428711 297.38061523 C221.47202604 313.12922062 215.03246535 328.05273288 207.29101562 342.52148438 C206.92862793 343.20227051 206.56624023 343.88305664 206.19287109 344.58447266 C201.88253547 352.62307078 197.35500755 360.21520927 191.82226562 367.48242188 C190.257292 369.43935807 190.257292 369.43935807 189.29101562 371.52148438 C188.63101562 371.52148438 187.97101563 371.52148438 187.29101562 371.52148438 C187.02289063 372.09382813 186.75476563 372.66617187 186.47851562 373.25585938 C185.24968927 375.60033072 183.86579386 377.64553375 182.29101562 379.77148438 C181.51757812 380.83109375 181.51757812 380.83109375 180.72851562 381.91210938 C180.25414062 382.44320313 179.77976562 382.97429687 179.29101562 383.52148438 C178.63101562 383.52148438 177.97101563 383.52148438 177.29101562 383.52148438 C176.91976562 384.35679687 176.91976562 384.35679687 176.54101562 385.20898438 C173.72024881 390.42740298 169.84180139 393.80655722 165.29101562 397.52148438 C163.00959366 399.74985002 160.77640951 402.00013538 158.60351562 404.33398438 C157.29101562 405.52148438 157.29101562 405.52148438 155.29101562 405.52148438 C154.96101563 406.51148438 154.63101562 407.50148438 154.29101562 408.52148438 C152.29492187 410.34570313 152.29492187 410.34570313 149.85351562 412.20898438 C149.05042969 412.83160156 148.24734375 413.45421875 147.41992188 414.09570312 C145.29101563 415.52148438 145.29101563 415.52148438 143.29101562 415.52148438 C143.29101562 416.18148438 143.29101562 416.84148437 143.29101562 417.52148438 C126.55466088 430.51787158 106.15215836 441.34067204 86.29101562 448.52148438 C85.51516113 448.80378906 84.73930664 449.08609375 83.93994141 449.37695312 C74.04330367 452.93407306 64.10827239 455.98711131 53.85351562 458.33398438 C53.00329834 458.52871338 52.15308105 458.72344238 51.27709961 458.92407227 C48.62207873 459.50255758 45.96207384 460.02236145 43.29101562 460.52148438 C42.34000977 460.70839844 41.38900391 460.8953125 40.40917969 461.08789062 C29.44178642 462.9666732 18.43510162 462.89367832 7.33642578 462.89208984 C3.95748231 462.8964311 0.5798828 462.93276223 -2.79882812 462.97070312 C-22.1235352 463.07151787 -40.88256829 460.75345277 -59.45898438 455.27148438 C-60.48499756 454.97556396 -61.51101074 454.67964355 -62.56811523 454.37475586 C-78.31672062 449.70249479 -93.24023288 443.2629341 -107.70898438 435.52148438 C-108.38977051 435.15909668 -109.07055664 434.79670898 -109.77197266 434.42333984 C-117.81057078 430.11300422 -125.40270927 425.5854763 -132.66992188 420.05273438 C-134.62685807 418.48776075 -134.62685807 418.48776075 -136.70898438 417.52148438 C-136.70898438 416.86148437 -136.70898438 416.20148438 -136.70898438 415.52148438 C-137.28132813 415.25335938 -137.85367188 414.98523438 -138.44335938 414.70898438 C-140.78783072 413.48015802 -142.83303375 412.09626261 -144.95898438 410.52148438 C-145.66539062 410.00585938 -146.37179688 409.49023438 -147.09960938 408.95898438 C-147.89625 408.24742187 -147.89625 408.24742187 -148.70898438 407.52148438 C-148.70898438 406.86148437 -148.70898438 406.20148438 -148.70898438 405.52148438 C-149.26585937 405.27398437 -149.82273437 405.02648437 -150.39648438 404.77148438 C-155.61490298 401.95071756 -158.99405722 398.07227014 -162.70898438 393.52148438 C-164.93735002 391.24006241 -167.18763538 389.00687826 -169.52148438 386.83398438 C-170.70898438 385.52148438 -170.70898438 385.52148438 -170.70898438 383.52148438 C-171.69898438 383.19148438 -172.68898437 382.86148437 -173.70898438 382.52148438 C-175.39257812 380.37695313 -175.39257812 380.37695313 -177.14648438 377.70898438 C-178.86391194 375.10786924 -180.44589235 372.7803837 -182.66992188 370.59179688 C-185.17500238 368.04832433 -187.01252848 365.21834938 -188.89648438 362.20898438 C-189.28304199 361.59724365 -189.66959961 360.98550293 -190.06787109 360.35522461 C-191.28841748 358.41483717 -192.49903614 356.46849396 -193.70898438 354.52148438 C-194.09812012 353.90241211 -194.48725586 353.28333984 -194.88818359 352.64550781 C-217.0096026 317.37408247 -228.55150771 276.37469773 -228.23046875 234.8125 C-228.20898799 231.52203763 -228.23044335 228.23375742 -228.25585938 224.94335938 C-228.28181699 205.82824304 -225.88010911 187.1417232 -220.45898438 168.77148438 C-220.16306396 167.74547119 -219.86714355 166.71945801 -219.56225586 165.66235352 C-214.88999479 149.91374813 -208.4504341 134.99023587 -200.70898438 120.52148438 C-200.34659668 119.84069824 -199.98420898 119.15991211 -199.61083984 118.45849609 C-193.06940222 106.25898476 -185.4706883 95.47627932 -176.59179688 84.83398438 C-174.6052623 82.46901972 -174.6052623 82.46901972 -172.70898438 79.52148438 C-172.04898438 79.52148438 -171.38898438 79.52148438 -170.70898438 79.52148438 C-170.33773437 78.68617187 -170.33773437 78.68617187 -169.95898438 77.83398438 C-167.13821756 72.61556577 -163.25977014 69.23641153 -158.70898438 65.52148438 C-156.42756241 63.29311873 -154.19437826 61.04283337 -152.02148438 58.70898438 C-150.70898438 57.52148438 -150.70898438 57.52148438 -148.70898438 57.52148438 C-148.37898438 56.53148437 -148.04898438 55.54148438 -147.70898438 54.52148438 C-145.56445313 52.83789063 -145.56445313 52.83789063 -142.89648438 51.08398438 C-140.29536924 49.36655681 -137.9678837 47.7845764 -135.77929688 45.56054688 C-133.23582433 43.05546637 -130.40584938 41.21794027 -127.39648438 39.33398438 C-126.47887329 38.75414795 -126.47887329 38.75414795 -125.54272461 38.16259766 C-123.60233717 36.94205127 -121.65599396 35.73143261 -119.70898438 34.52148438 C-119.08991211 34.13234863 -118.47083984 33.74321289 -117.83300781 33.34228516 C-82.56158247 11.22086615 -41.56219773 -0.32103896 0 0 Z M-35.70898438 18.52148438 C-37.32365824 18.81468842 -38.93840456 19.1074937 -40.55322266 19.39990234 C-81.085696 26.86496637 -117.13760292 47.22896555 -146.70898438 75.52148438 C-147.26054199 76.04049316 -147.81209961 76.55950195 -148.38037109 77.09423828 C-185.06364393 111.72862875 -210.32114441 162.99890355 -212.8152771 213.681427 C-212.87241381 216.00094864 -212.89976933 218.31847971 -212.91210938 220.63867188 C-212.91780945 221.49470001 -212.92350952 222.35072815 -212.92938232 223.23269653 C-212.93878035 225.03955878 -212.94534548 226.84643777 -212.94921875 228.65332031 C-212.95883488 231.35449089 -212.98987074 234.05486963 -213.02148438 236.75585938 C-213.09167907 248.31132215 -212.02876071 259.20702773 -209.70898438 270.52148438 C-209.55456879 271.28946854 -209.4001532 272.0574527 -209.24105835 272.84870911 C-205.82820475 289.74203763 -201.47389035 306.2601703 -193.63867188 321.67529297 C-192.66557483 323.60768788 -191.73178058 325.55584173 -190.80273438 327.50976562 C-181.30849377 347.296162 -168.51358696 365.19978263 -153.234375 380.94482422 C-151.69501505 382.53592322 -150.17861641 384.14690326 -148.66210938 385.75976562 C-114.92274253 421.11913031 -63.44489409 445.39046504 -14.52844238 447.62091064 C-12.1805488 447.66867239 -9.83470343 447.68622072 -7.48632812 447.68945312 C-6.62318497 447.69278152 -5.76004181 447.69610992 -4.8707428 447.69953918 C-3.05128507 447.70457543 -1.23181821 447.70694854 0.58764648 447.70678711 C3.32161375 447.70895903 6.05516716 447.72711008 8.7890625 447.74609375 C21.21303637 447.78685676 33.43869915 447.64804634 45.29101562 443.52148438 C47.49362031 443.07552491 49.70276302 442.66117671 51.91601562 442.27148438 C66.41226152 439.50575325 80.29961693 435.13224296 93.45800781 428.44238281 C95.34960768 427.49204788 97.25795494 426.58584531 99.17382812 425.68554688 C119.36937495 416.08255568 137.18753149 402.96444405 153.29101562 387.52148438 C154.08789795 386.76544922 154.08789795 386.76544922 154.90087891 385.99414062 C163.1948935 378.09179467 170.51441057 369.75634686 177.29101562 360.52148438 C177.69304199 359.97492188 178.09506836 359.42835938 178.50927734 358.86523438 C187.52221414 346.49614009 194.6344393 333.2619728 201.29101562 319.52148438 C201.72027344 318.69132812 202.14953125 317.86117188 202.59179688 317.00585938 C209.69335374 302.663953 213.61621187 286.22884261 216.29101562 270.52148438 C216.66540877 268.52137068 217.04036296 266.52136189 217.41601562 264.52148438 C218.70134439 257.48600061 219.45623647 250.68195338 219.49414062 243.53710938 C219.4998407 242.68203796 219.50554077 241.82696655 219.51141357 240.94598389 C219.52082438 239.1373415 219.52738189 237.32868227 219.53125 235.52001953 C219.54083983 232.82096129 219.57185145 230.12270436 219.60351562 227.42382812 C219.67580343 215.50575954 218.50599148 204.22113613 216.29101562 192.52148438 C215.99781158 190.90681051 215.7050063 189.29206419 215.41259766 187.67724609 C207.95249191 147.17169435 187.59860363 111.05323559 159.29101562 81.52148438 C158.53715576 80.72677734 158.53715576 80.72677734 157.76806641 79.91601562 C134.56951799 55.56802215 105.17543305 37.11454715 73.29101562 26.52148438 C72.12957031 26.1115625 70.968125 25.70164062 69.77148438 25.27929688 C52.54991784 19.4726535 33.50785881 15.41491878 15.30664062 15.31835938 C14.45156921 15.3126593 13.5964978 15.30695923 12.71551514 15.30108643 C10.90687275 15.29167562 9.09821352 15.28511811 7.28955078 15.28125 C4.59049254 15.27166017 1.89223561 15.24064855 -0.80664062 15.20898438 C-12.72470921 15.13669657 -24.00933262 16.30650852 -35.70898438 18.52148438 Z " fill="#E2E3E3" transform="translate(252.708984375,24.478515625)"/>
<path d="M0 0 C10.56 0 21.12 0 32 0 C35.3181729 6.63634581 38.34108759 13.05783436 41 19.9375 C42.99077423 25.06414828 45.03249683 30.13533158 47.33984375 35.12890625 C50.33358615 41.63671836 53.0263387 48.25810147 55.71166992 54.89746094 C56.56171861 56.99806907 57.41635041 59.09677016 58.27148438 61.1953125 C58.8283992 62.56759709 59.38504868 63.93998939 59.94140625 65.3125 C60.43326416 66.52550781 60.92512207 67.73851562 61.43188477 68.98828125 C63.40420205 73.94879298 65.19510956 78.97672259 67 84 C67.21947296 83.46162506 67.43894592 82.92325012 67.66506958 82.36856079 C74.10330152 66.57628426 80.54839866 50.78681947 87 35 C87.58651337 33.56448792 87.58651337 33.56448792 88.18487549 32.09997559 C90.21599363 27.12946266 92.24963811 22.16000256 94.28826904 17.19256592 C94.88700784 15.73268038 95.48486995 14.27243498 96.08184814 12.81182861 C96.89983254 10.81106196 97.72093418 8.81160531 98.54296875 6.8125 C98.99696045 5.70519531 99.45095215 4.59789062 99.91870117 3.45703125 C101 1 101 1 102 0 C104.3756852 -0.0883967 106.72208674 -0.11530305 109.09765625 -0.09765625 C110.16094398 -0.09553383 110.16094398 -0.09553383 111.24571228 -0.09336853 C113.51801712 -0.08775443 115.79022475 -0.07519963 118.0625 -0.0625 C119.59960796 -0.05748681 121.13671745 -0.05292359 122.67382812 -0.04882812 C126.44925642 -0.03778042 130.22461171 -0.02050641 134 0 C134 1.98 134 3.96 134 6 C132.87851562 6.03867187 132.87851562 6.03867187 131.734375 6.078125 C130.25710937 6.16320312 130.25710937 6.16320312 128.75 6.25 C127.77546875 6.29640625 126.8009375 6.3428125 125.796875 6.390625 C122.30211777 7.15205255 121.23061406 8.23974376 119 11 C118.43442132 13.49163254 118.43442132 13.49163254 118.57421875 16.2734375 C118.58171143 17.38291748 118.5892041 18.49239746 118.59692383 19.63549805 C118.64175903 21.48655151 118.64175903 21.48655151 118.6875 23.375 C118.70514404 24.67671143 118.72278809 25.97842285 118.7409668 27.31958008 C118.78298166 30.37400154 118.83915266 33.42785997 118.90136719 36.48193359 C119.00320243 41.74224658 119.05256915 47.00249125 119.09886169 52.2635498 C119.14437277 57.17277365 119.20446522 62.08175644 119.26748657 66.99078369 C119.29749495 69.45521419 119.32335373 71.91969872 119.34506226 74.38421631 C119.37840339 77.88541783 119.43097174 81.385838 119.48828125 84.88671875 C119.4979039 86.48015862 119.4979039 86.48015862 119.50772095 88.10578918 C119.52748993 89.08754623 119.54725891 90.06930328 119.56762695 91.08081055 C119.57873001 91.93772995 119.58983307 92.79464935 119.60127258 93.67753601 C120.08994568 96.5239058 121.02378915 97.91670284 123 100 C125.72489473 100.69749589 125.72489473 100.69749589 128.6875 100.75 C130.17830078 100.83507812 130.17830078 100.83507812 131.69921875 100.921875 C132.45847656 100.94765625 133.21773437 100.9734375 134 101 C134 102.98 134 104.96 134 107 C118.49 107 102.98 107 87 107 C87 105.02 87 103.04 87 101 C88.01320312 100.94392578 88.01320312 100.94392578 89.046875 100.88671875 C89.93890625 100.82097656 90.8309375 100.75523437 91.75 100.6875 C92.63171875 100.62949219 93.5134375 100.57148438 94.421875 100.51171875 C97.3812568 99.9243263 98.82177564 99.06538841 101 97 C102.17108064 93.48675808 102.13229358 90.33634942 102.11352539 86.68286133 C102.11367142 85.94115189 102.11381744 85.19944244 102.1139679 84.43525696 C102.11327134 81.98415195 102.10549097 79.53312298 102.09765625 77.08203125 C102.09579116 75.38238059 102.09436768 73.68272939 102.09336853 71.983078 C102.08955055 67.50980139 102.07972638 63.03655724 102.06866455 58.56329346 C102.05843499 53.99858031 102.0538676 49.43386193 102.04882812 44.86914062 C102.03810349 35.91274615 102.02103567 26.95637578 102 18 C101.77529022 18.54520294 101.55058044 19.09040588 101.31906128 19.65213013 C98.95118054 25.3966615 96.58192323 31.14062378 94.21191406 36.88427734 C93.33103672 39.01955234 92.45049463 41.15496568 91.5703125 43.29052734 C82.69148934 64.83176307 82.69148934 64.83176307 78.15454102 75.30688477 C76.75869684 78.56287062 75.44475818 81.84713612 74.140625 85.140625 C72.5519797 89.12311938 70.93551193 93.09390515 69.3125 97.0625 C69.00256104 97.82602783 68.69262207 98.58955566 68.37329102 99.3762207 C66.1151423 104.8848577 66.1151423 104.8848577 65 106 C63.33382885 106.04063832 61.66611905 106.042721 60 106 C56.66743398 99.5201058 53.63525702 92.9920248 50.875 86.25 C50.47466553 85.2798999 50.07433105 84.3097998 49.66186523 83.31030273 C48.70248004 80.98523486 47.74452385 78.65957709 46.78759766 76.33349609 C45.03411583 72.07677391 43.26736386 67.82560445 41.50018311 63.57455444 C39.78447 59.44642648 38.07164528 55.31710315 36.35919189 51.18762207 C35.49923186 49.11505565 34.63836084 47.04286697 33.77655029 44.97106934 C32.54723274 42.01450688 31.32200768 39.0562781 30.09765625 36.09765625 C29.72924118 35.2139888 29.36082611 34.33032135 28.98124695 33.4198761 C23 18.92987183 23 18.92987183 23 14 C22.34 14 21.68 14 21 14 C21.06126909 23.93611067 21.13841715 33.87195993 21.23571491 43.80778694 C21.28040032 48.42164481 21.31966047 53.03541474 21.34643555 57.64941406 C21.37248679 62.10403293 21.41290206 66.5583131 21.46318626 71.01272202 C21.47984267 72.71028295 21.49136459 74.40790245 21.49761391 76.1055336 C21.50726849 78.48754444 21.53534286 80.86869122 21.56762695 83.25048828 C21.56547432 84.2981411 21.56547432 84.2981411 21.5632782 85.36695862 C21.65086349 89.95041307 22.60544504 93.09870662 25 97 C28.74974989 100.02063186 32.27019123 100.53629326 37 101 C37 102.98 37 104.96 37 107 C24.46 107 11.92 107 -1 107 C-1 105.02 -1 103.04 -1 101 C-0.24074219 100.82984375 0.51851563 100.6596875 1.30078125 100.484375 C2.29464844 100.24203125 3.28851563 99.9996875 4.3125 99.75 C5.29863281 99.51796875 6.28476563 99.2859375 7.30078125 99.046875 C10.39709425 97.84598949 11.35231822 96.83678546 13 94 C14.20500958 90.38497127 14.17908341 87.05277079 14.20874023 83.28735352 C14.21852402 82.50330139 14.2283078 81.71924927 14.23838806 80.91143799 C14.26830014 78.31727798 14.28971142 75.72316915 14.30859375 73.12890625 C14.31516558 72.24301252 14.3217374 71.3571188 14.32850838 70.44437981 C14.36107783 65.75842764 14.38553893 61.07249806 14.4050293 56.38647461 C14.42287031 52.50528061 14.45773778 48.62480937 14.50756836 44.74389648 C14.56765152 40.05897458 14.59848756 35.37472481 14.60820198 30.68943596 C14.61677493 28.90357578 14.63563829 27.11773446 14.6649456 25.33209419 C14.70374147 22.83460713 14.70491207 20.33975637 14.69702148 17.84204102 C14.71702209 17.10372543 14.73702271 16.36540985 14.75762939 15.60472107 C14.78927711 13.27202615 14.78927711 13.27202615 14 10 C10.69336743 7.20179081 7.96714393 5.5494582 3.625 5.25 C2.42875 5.1675 1.2325 5.085 0 5 C0 3.35 0 1.7 0 0 Z " fill="#F6F7F9" transform="translate(125,264)"/>
<path d="M0 0 C14.19 0 28.38 0 43 0 C43 1.65 43 3.3 43 5 C39.37 5.66 35.74 6.32 32 7 C31.78206105 12.15255287 32.42616051 16.08701222 34.07421875 20.9609375 C34.53825086 22.37382115 34.99950427 23.78761936 35.45849609 25.20214844 C35.70774841 25.96765015 35.95700073 26.73315186 36.21380615 27.52185059 C38.62960223 35.13664389 40.74879068 42.84666762 42.93139648 50.53076172 C43.52418691 52.61250898 44.12060699 54.69322574 44.72045898 56.77294922 C45.5986763 59.81784766 46.46653198 62.86552801 47.33203125 65.9140625 C47.60070511 66.83909576 47.86937897 67.76412903 48.14619446 68.7171936 C49.42381205 73.26420834 50.33605261 77.22441198 50 82 C50.66 82 51.32 82 52 82 C52.21527344 80.72769531 52.43054688 79.45539063 52.65234375 78.14453125 C54.32158442 69.82169434 57.02933194 61.77827527 59.5625 53.6875 C60.10116664 51.95545219 60.63941115 50.22327304 61.17724609 48.4909668 C62.2614921 45.00073019 63.34838609 41.5113338 64.43701172 38.02246094 C65.8788651 33.39662073 67.30356896 28.7656786 68.72265625 24.1328125 C69.13520697 22.78942999 69.54788205 21.44608566 69.96069336 20.1027832 C70.72010234 17.63060363 71.47752143 15.15781167 72.23266602 12.68432617 C72.57096436 11.58838135 72.9092627 10.49243652 73.2578125 9.36328125 C73.5480127 8.41751221 73.83821289 7.47174316 74.13720703 6.49731445 C74.92885185 4.20593505 75.85749848 2.13444325 77 0 C78.65 0 80.3 0 82 0 C82.31638428 0.92409668 82.63276855 1.84819336 82.95874023 2.80029297 C84.17686171 6.35780849 85.39559158 9.91511539 86.61444092 13.47238159 C87.16332163 15.07463704 87.71202758 16.67695236 88.26055908 18.27932739 C91.01660097 26.33012749 93.7750074 34.37969194 96.58984375 42.41015625 C101.06544614 55.18532168 105.25574409 67.99054612 109 81 C111.7153919 72.34816695 114.37226213 63.67880027 117 55 C117.23620056 54.22070129 117.47240112 53.44140259 117.71575928 52.63848877 C119.24441555 47.58697635 120.75577839 42.5306624 122.24984741 37.46881104 C122.74704734 35.79106216 123.24848557 34.11456307 123.75430298 32.43939209 C124.47303494 30.05537073 125.17571397 27.66713079 125.875 25.27734375 C126.09024826 24.57501114 126.30549652 23.87267853 126.52726746 23.14906311 C128.01405278 17.97825289 128.17936188 13.37854852 128 8 C123.71 7.01 119.42 6.02 115 5 C115 3.35 115 1.7 115 0 C127.21 0 139.42 0 152 0 C152 1.98 152 3.96 152 6 C151.40832031 6.01417969 150.81664062 6.02835937 150.20703125 6.04296875 C146.13501191 6.28875132 143.60178004 6.58544042 140.1875 8.9375 C134.75153623 16.54784927 132.70222376 26.09799797 130.25 35 C127.6460378 44.29245128 124.94563623 53.54038151 122.0625 62.75 C117.38245273 77.74070306 113.19080562 92.86686045 109 108 C106.69 108 104.38 108 102 108 C98.27908776 97.45374579 94.57234994 86.90742082 91.13037109 76.26611328 C89.90676804 72.53141767 88.56836326 68.88093769 87.08203125 65.2421875 C84.75077678 59.4959901 82.80664186 53.64040598 80.875 47.75 C80.35486328 46.17605469 80.35486328 46.17605469 79.82421875 44.5703125 C79.1651002 42.57527935 78.50714237 40.57986218 77.85058594 38.58398438 C76.90787778 35.72014305 75.95638697 32.85930125 75 30 C72.67516344 35.99306671 70.71314881 42.0295122 68.875 48.1875 C68.25979187 50.22676695 67.6438712 52.26581903 67.02734375 54.3046875 C66.7010498 55.38459961 66.37475586 56.46451172 66.03857422 57.57714844 C60.91661903 74.45768716 55.69925169 91.30454504 50 108 C47.69 108 45.38 108 43 108 C42.78496826 107.27973633 42.56993652 106.55947266 42.34838867 105.81738281 C37.29956464 88.91819643 32.21200483 72.03121875 27.03149414 55.171875 C26.5691206 53.66668282 26.10679914 52.16147463 25.64453125 50.65625 C25.4193129 49.92301514 25.19409454 49.18978027 24.96205139 48.43432617 C23.51249581 43.70391619 22.09693453 38.96473894 20.69921875 34.21875 C20.34609619 33.03313477 19.99297363 31.84751953 19.62915039 30.62597656 C18.98457538 28.45890064 18.3488592 26.28915877 17.72436523 24.11621094 C15.9714583 18.26566952 14.07271118 12.67217089 10 8 C7.42348595 6.45546837 7.42348595 6.45546837 4.6875 6 C3.80449219 5.79375 2.92148437 5.5875 2.01171875 5.375 C1.01591797 5.189375 1.01591797 5.189375 0 5 C0 3.35 0 1.7 0 0 Z " fill="#F7F8FA" transform="translate(262,264)"/>
<path d="M0 0 C15.18 0 30.36 0 46 0 C46 1.65 46 3.3 46 5 C45.39671875 5.02578125 44.7934375 5.0515625 44.171875 5.078125 C38.95546103 5.4034799 38.95546103 5.4034799 34.5 7.9375 C31.86062714 11.56663768 31.86055574 13.83374632 31.82299805 18.31054688 C31.81642685 18.9580188 31.80985565 19.60549072 31.80308533 20.27258301 C31.78333556 22.42130655 31.77168053 24.56995982 31.76171875 26.71875 C31.75764322 27.45464859 31.7535677 28.19054718 31.74936867 28.94874573 C31.7284918 32.85059326 31.71420222 36.75240555 31.70483398 40.65429688 C31.6938204 44.66445584 31.65948484 48.67405208 31.61966228 52.68401337 C31.59336271 55.78292794 31.58512999 58.88171183 31.58155251 61.98072815 C31.57671374 63.45735943 31.56517803 64.93398595 31.54651451 66.4105072 C31.42832392 76.38842138 32.49698182 84.16163637 37.6875 92.8125 C45.14096262 99.86307275 53.00404473 101.26190392 62.9375 101.15234375 C71.66576898 100.7181569 79.75115688 98.19722726 86.3125 92.25 C93.16089933 84.52042384 92.44471026 75.23661628 92.3984375 65.51953125 C92.40046157 64.01836506 92.40337578 62.51719983 92.40713501 61.01603699 C92.41153863 57.883398 92.40518838 54.75101702 92.39111328 51.6184082 C92.37397772 47.61021684 92.38390215 43.6026263 92.40183067 39.59445667 C92.41268397 36.50001007 92.4092159 33.40570543 92.4014473 30.3112545 C92.39945185 28.83331925 92.40188146 27.35537094 92.40888596 25.87745094 C92.41653129 23.8122411 92.40485687 21.7479993 92.38818359 19.68286133 C92.38460342 17.92369133 92.38460342 17.92369133 92.38095093 16.12898254 C91.95967902 12.66881922 91.05134161 10.78902326 89 8 C85.91318392 5.87116133 82.67235389 5.50077553 79 5 C79 3.35 79 1.7 79 0 C90.88 0 102.76 0 115 0 C115 1.65 115 3.3 115 5 C113.1746875 5.37125 113.1746875 5.37125 111.3125 5.75 C107.40810723 6.72609819 104.88953166 8.11046834 102 11 C100.93010227 14.20969319 100.86912465 16.52707778 100.8581543 19.90161133 C100.85111984 21.11750443 100.84408539 22.33339752 100.83683777 23.58613586 C100.83059135 25.56410408 100.83059135 25.56410408 100.82421875 27.58203125 C100.81378315 28.95668803 100.80235869 30.33133762 100.78999329 31.70597839 C100.73774674 37.5346628 100.68971773 43.36322593 100.67407227 49.19213867 C100.66386455 52.76205291 100.634213 56.33138561 100.59275246 59.90106773 C100.57477085 61.89578606 100.57706526 63.89065506 100.58000183 65.88545227 C100.43719897 76.7147053 99.11796164 88.76139929 91.8203125 97.32421875 C85.56268761 103.08499359 78.18610637 106.08761549 70 108 C68.82244141 108.2784375 68.82244141 108.2784375 67.62109375 108.5625 C52.44544449 111.09554429 38.96858655 107.80500064 26.0859375 99.8125 C19.66175125 95.06848554 16.87240829 87.46465209 15 80 C14.81364804 77.61418423 14.71725672 75.2201454 14.69702148 72.82714844 C14.68858215 72.14819519 14.68014282 71.46924194 14.67144775 70.76971436 C14.64588095 68.54959328 14.63358151 66.32960457 14.62109375 64.109375 C14.60490107 62.55713879 14.58771923 61.00491262 14.56959534 59.45269775 C14.52409031 55.38347002 14.48918618 51.31422855 14.45739746 47.24487305 C14.40534401 40.71807276 14.34034624 34.19141958 14.26918221 27.66480255 C14.24637572 25.38753074 14.23009285 23.1102777 14.21446228 20.83294678 C14.20105702 19.44038685 14.18744233 18.04782893 14.17358398 16.65527344 C14.16407211 15.43950623 14.15456024 14.22373901 14.14476013 12.97113037 C14.13112962 9.9439124 14.13112962 9.9439124 13 7 C8.71 6.34 4.42 5.68 0 5 C0 3.35 0 1.7 0 0 Z " fill="#F5F7F9" transform="translate(124,145)"/>
<path d="M0 0 C3.62149435 2.22483277 5.6470943 4.9412829 7 9 C7.86217022 21.7501711 6.09005346 32.78191074 -2 43 C-7.12706004 47.68081593 -12.03366064 50.11610566 -19 50 C-23.31341494 48.49532037 -25.80715012 45.43010646 -28.04296875 41.5546875 C-31.31452672 32.82163072 -29.25137465 23.35945882 -25.6953125 15.05859375 C-19.78371906 4.39320742 -12.52477157 -2.11762756 0 0 Z " fill="#83BEE1" transform="translate(272,175)"/>
<path d="M0 0 C2.625 1.5625 2.625 1.5625 3.625 2.5625 C3.8125 5.5 3.8125 5.5 3.625 8.5625 C2.965 9.2225 2.305 9.8825 1.625 10.5625 C-0.8125 10.5625 -0.8125 10.5625 -3.375 9.5625 C-5.1875 6.5 -5.1875 6.5 -6.375 3.5625 C-9.82404288 3.79766201 -11.79818289 4.01315037 -14.34375 6.4375 C-17.18788323 10.81308959 -18.57366936 15.41806585 -20.125 20.375 C-20.59873047 21.84356445 -20.59873047 21.84356445 -21.08203125 23.34179688 C-21.85594831 25.74563017 -22.61678253 28.15366866 -23.375 30.5625 C-20.075 30.5625 -16.775 30.5625 -13.375 30.5625 C-13.375 31.5525 -13.375 32.5425 -13.375 33.5625 C-17.005 33.5625 -20.635 33.5625 -24.375 33.5625 C-24.62378906 34.92632812 -24.87257813 36.29015625 -25.12890625 37.6953125 C-26.46820741 44.38828453 -28.39252875 50.89198332 -30.3125 57.4375 C-32.31147465 64.28371003 -34.29480653 71.11479821 -35.9765625 78.046875 C-38.45404881 88.13959248 -42.23565839 98.65639197 -50.375 105.5625 C-54.90484206 108.20490787 -58.41806895 107.68180701 -63.375 106.5625 C-66.10434183 104.25961783 -66.33211851 102.99131488 -66.6875 99.4375 C-66.375 96.5625 -66.375 96.5625 -64.375 94.5625 C-61.25 94.4375 -61.25 94.4375 -58.375 94.5625 C-58.375 97.2025 -58.375 99.8425 -58.375 102.5625 C-55.84878135 102.2126748 -54.68846363 101.95409561 -53.06640625 99.92773438 C-48.81067002 91.36472185 -46.68308846 82.29124745 -44.375 73.0625 C-43.75189881 70.61390703 -43.12553832 68.1661648 -42.4987793 65.71850586 C-42.0848466 64.10117118 -41.67223622 62.48349746 -41.26098633 60.86547852 C-39.09962922 52.39381465 -36.75007716 43.97633719 -34.375 35.5625 C-37.675 35.2325 -40.975 34.9025 -44.375 34.5625 C-44.375 33.2425 -44.375 31.9225 -44.375 30.5625 C-40.415 30.5625 -36.455 30.5625 -32.375 30.5625 C-31.983125 28.78875 -31.59125 27.015 -31.1875 25.1875 C-28.65306346 15.1794227 -24.68487186 6.11086471 -15.6171875 0.46875 C-10.20136306 -2.15416049 -5.49179184 -2.33909653 0 0 Z " fill="#84BFE2" transform="translate(326.375,146.4375)"/>
<path d="M0 0 C3.30006019 4.95009028 1.78549675 10.29205698 1 16 C-0.81522196 25.07610978 -4.75312148 35.95854286 -12 42 C-14.625 41.9375 -14.625 41.9375 -17 41 C-20.05237316 36.42144025 -19.61561293 32.3726219 -19 27 C-17.04426517 18.23760555 -14.35308749 7.64329332 -8.125 1 C-5.23357092 -0.36067251 -3.15156175 -0.41107327 0 0 Z " fill="#02315F" transform="translate(270,179)"/>
<path d="M0 0 C0.33 0 0.66 0 1 0 C1 25.74 1 51.48 1 78 C0.67 78 0.34 78 0 78 C-0.33 54.9 -0.66 31.8 -1 8 C-1.99 8.495 -1.99 8.495 -3 9 C-2.01 6.03 -1.02 3.06 0 0 Z " fill="#2C5279" transform="translate(227,280)"/>
<path d="M0 0 C0.33 0 0.66 0 1 0 C1 2.97 1 5.94 1 9 C0.01 9 -0.98 9 -2 9 C-2.33 8.34 -2.66 7.68 -3 7 C-2.06421005 4.64018187 -1.06652192 2.30368736 0 0 Z " fill="#19426D" transform="translate(227,280)"/>
</svg>
